# xmcd
#
# Track frame offsets: 
#        150
#        18788
#        39010
#        59520
#        72339
#        91460
#        105862
#        125888
#        141892
#        154407
#        172019
#
# Disc length: 2467 seconds
#
# Revision: 0
# Processed by: cddbd v1.5.2PL0 Copyright (c) Steve Scherf et al.
# Submitted via: ExactAudioCopy v0.95b4
#
DISCID=9209a10b
DTITLE=Bill Kirchen - Word To The Wise
DYEAR=2010
DGENRE=Country
TTITLE0=Bump Wood
TTITLE1=Shelly's Winter Love
TTITLE2=Man In The Bottom Of The Well
TTITLE3=I Don't Work That Cheap
TTITLE4=Time Will Tell The Story
TTITLE5=Husbands And Wives
TTITLE6=Open Range
TTITLE7=Arkansas Diamond
TTITLE8=Word To The Wise
TTITLE9=Ain't Got Time For The Blues
TTITLE10=Valley Of The Moon
EXTD=
EXTT0=
EXTT1=
EXTT2=
EXTT3=
EXTT4=
EXTT5=
EXTT6=
EXTT7=
EXTT8=
EXTT9=
EXTT10=
PLAYORDER=
